<svg xmlns="http://www.w3.org/2000/svg" viewBox="699 435 522 210" role="img" aria-labelledby="logo-title">
  <title id="logo-title">Link</title>
  <path fill="#004fc1" d="M766.151 458.528H709.819v175.257h121.678V582.21h-65.346Z"/>
  <path fill="#e82e8b" d="M872.555 445.509c-14.271 0-25.788 11.517-25.788 25.787 0 14.272 11.517 26.038 25.788 26.038s25.788-11.766 25.788-26.038c0-14.27-11.517-25.787-25.788-25.787Z"/>
  <path fill="#004fc1" d="M847.769 506.849h49.573v126.935h-49.573Z"/>
  <path fill="#004fc1" d="M1004.246 503.844c-16.524 0-27.541 7.261-34.801 16.023v-13.018h-49.573v126.935h49.573v-63.843c0-10.015 4.757-17.526 15.773-17.526 11.266 0 16.023 7.511 16.023 17.526v63.843h49.573v-79.366c0-18.527-8.512-50.574-46.568-50.574Z"/>
  <path fill="#e82e8b" d="m1210.181 634.491-39.808-67.349 36.553-59.587h-54.329l-23.136 41.376-11.84 18.001 16.193 29.823 19.784 37.736Z"/>
  <path fill="#004fc1" d="m1120.991 548.931 1.924-3.441v-86.962h-49.572v175.257h49.572v-41.503l-13.765-25.35Z"/>
</svg>
