<svg xmlns="http://www.w3.org/2000/svg" viewBox="0 0 24 24" role="img" aria-hidden="true">
  <path fill="#004fc1" d="M12 2.16c3.2 0 3.58.01 4.85.07 1.18.05 1.82.25 2.24.41.57.22.97.48 1.39.9.42.42.68.82.9 1.39.16.42.36 1.06.41 2.24.06 1.27.07 1.65.07 4.85s-.01 3.58-.07 4.85c-.05 1.18-.25 1.82-.41 2.24-.22.57-.48.97-.9 1.39-.42.42-.82.68-1.39.9-.42.16-1.06.36-2.24.41-1.27.06-1.65.07-4.85.07s-3.58-.01-4.85-.07c-1.18-.05-1.82-.25-2.24-.41a3.74 3.74 0 0 1-1.39-.9 3.74 3.74 0 0 1-.9-1.39c-.16-.42-.36-1.06-.41-2.24-.06-1.27-.07-1.65-.07-4.85s.01-3.58.07-4.85c.05-1.18.25-1.82.41-2.24.22-.57.48-.97.9-1.39.42-.42.82-.68 1.39-.9.42-.16 1.06-.36 2.24-.41 1.27-.06 1.65-.07 4.85-.07Zm0-2.16C8.75 0 8.34.01 7.05.07 5.76.13 4.88.33 4.1.63a5.9 5.9 0 0 0-2.13 1.38A5.9 5.9 0 0 0 .59 4.14C.29 4.92.09 5.8.03 7.09-.03 8.38-.04 8.79-.04 12.04s.01 3.66.07 4.95c.06 1.29.26 2.17.56 2.95a5.9 5.9 0 0 0 1.38 2.13 5.9 5.9 0 0 0 2.13 1.38c.78.3 1.66.5 2.95.56 1.29.06 1.7.07 4.95.07s3.66-.01 4.95-.07c1.29-.06 2.17-.26 2.95-.56a5.9 5.9 0 0 0 2.13-1.38 5.9 5.9 0 0 0 1.38-2.13c.3-.78.5-1.66.56-2.95.06-1.29.07-1.7.07-4.95s-.01-3.66-.07-4.95c-.06-1.29-.26-2.17-.56-2.95a5.9 5.9 0 0 0-1.38-2.13A5.9 5.9 0 0 0 19.9.63c-.78-.3-1.66-.5-2.95-.56C15.66.01 15.25 0 12 0Zm0 5.84a6.16 6.16 0 1 0 0 12.32 6.16 6.16 0 0 0 0-12.32Zm0 10.16a4 4 0 1 1 0-8 4 4 0 0 1 0 8Zm7.85-10.4a1.44 1.44 0 1 1-2.88 0 1.44 1.44 0 0 1 2.88 0Z"/>
</svg>
