<svg xmlns="http://www.w3.org/2000/svg" viewBox="0 0 24 24" role="img" aria-hidden="true">
  <path fill="#004fc1" d="M20.52 3.48A11.86 11.86 0 0 0 12.08 0C5.5 0 .15 5.35.15 11.93c0 2.1.55 4.15 1.6 5.96L.05 24l6.25-1.64a11.9 11.9 0 0 0 5.78 1.47h.01c6.58 0 11.93-5.35 11.93-11.93 0-3.18-1.24-6.18-3.5-8.42ZM12.09 21.8h-.01a9.88 9.88 0 0 1-5.03-1.38l-.36-.21-3.71.97.99-3.62-.23-.37a9.86 9.86 0 0 1-1.51-5.26c0-5.43 4.42-9.85 9.86-9.85a9.8 9.8 0 0 1 6.96 2.89 9.8 9.8 0 0 1 2.89 6.96c0 5.43-4.42 9.86-9.85 9.86Zm5.4-7.38c-.3-.15-1.75-.86-2.02-.96-.27-.1-.47-.15-.67.15-.2.3-.77.96-.94 1.16-.17.2-.35.22-.64.07-.3-.15-1.25-.46-2.38-1.47a8.9 8.9 0 0 1-1.65-2.05c-.17-.3-.02-.46.13-.61.13-.13.3-.35.45-.52.15-.17.2-.3.3-.5.1-.2.05-.37-.03-.52-.07-.15-.67-1.62-.92-2.22-.24-.58-.49-.5-.67-.51h-.57c-.2 0-.52.07-.79.37-.27.3-1.04 1.02-1.04 2.48s1.07 2.88 1.22 3.07c.15.2 2.1 3.2 5.08 4.49.71.31 1.26.49 1.69.63.71.23 1.36.2 1.87.12.57-.09 1.75-.72 2-1.41.25-.7.25-1.29.17-1.41-.07-.13-.27-.2-.57-.35Z"/>
</svg>
